<svg width="0" height="0" class="hidden">
  <symbol fill="none" xmlns="http://www.w3.org/2000/svg" viewBox="0 0 24 24" id="bars-round">
    <path fill-rule="evenodd" clip-rule="evenodd" d="M20.5 4C19.1193 4 18 5.11929 18 6.5V18.5C18 19.8807 19.1193 21 20.5 21C21.8807 21 23 19.8807 23 18.5V6.5C23 5.11929 21.8807 4 20.5 4ZM20 6.5C20 6.22386 20.2239 6 20.5 6C20.7761 6 21 6.22386 21 6.5V18.5C21 18.7761 20.7761 19 20.5 19C20.2239 19 20 18.7761 20 18.5V6.5ZM14.5 8C13.1193 8 12 9.11929 12 10.5V18.5C12 19.8807 13.1193 21 14.5 21C15.8807 21 17 19.8807 17 18.5V10.5C17 9.11929 15.8807 8 14.5 8ZM14 10.5C14 10.2239 14.2239 10 14.5 10C14.7761 10 15 10.2239 15 10.5V18.5C15 18.7761 14.7761 19 14.5 19C14.2239 19 14 18.7761 14 18.5V10.5ZM6 14.5C6 13.1193 7.11929 12 8.5 12C9.88071 12 11 13.1193 11 14.5V18.5C11 19.8807 9.88071 21 8.5 21C7.11929 21 6 19.8807 6 18.5V14.5ZM8.5 14C8.22386 14 8 14.2239 8 14.5V18.5C8 18.7761 8.22386 19 8.5 19C8.77614 19 9 18.7761 9 18.5V14.5C9 14.2239 8.77614 14 8.5 14ZM2.5 16C1.11929 16 0 17.1193 0 18.5C0 19.8807 1.11929 21 2.5 21C3.88071 21 5 19.8807 5 18.5C5 17.1193 3.88071 16 2.5 16ZM2 18.5C2 18.2239 2.22386 18 2.5 18C2.77614 18 3 18.2239 3 18.5C3 18.7761 2.77614 19 2.5 19C2.22386 19 2 18.7761 2 18.5Z" fill="#000000"></path>
  </symbol>
  <symbol fill="none" xmlns="http://www.w3.org/2000/svg" viewBox="0 0 24 24" id="bell">
    <path d="M12.0009 5C13.4331 5 14.8066 5.50571 15.8193 6.40589C16.832 7.30606 17.4009 8.52696 17.4009 9.8C17.4009 11.7691 17.846 13.2436 18.4232 14.3279C19.1606 15.7133 19.5293 16.406 19.5088 16.5642C19.4849 16.7489 19.4544 16.7997 19.3026 16.9075C19.1725 17 18.5254 17 17.2311 17H6.77066C5.47638 17 4.82925 17 4.69916 16.9075C4.54741 16.7997 4.51692 16.7489 4.493 16.5642C4.47249 16.406 4.8412 15.7133 5.57863 14.3279C6.1558 13.2436 6.60089 11.7691 6.60089 9.8C6.60089 8.52696 7.16982 7.30606 8.18251 6.40589C9.19521 5.50571 10.5687 5 12.0009 5ZM12.0009 5V3M9.35489 20C10.0611 20.6233 10.9888 21.0016 12.0049 21.0016C13.0209 21.0016 13.9486 20.6233 14.6549 20" stroke="#000000" stroke-width="2" stroke-linecap="round" stroke-linejoin="round"></path>
  </symbol>
  <symbol fill="none" xmlns="http://www.w3.org/2000/svg" viewBox="0 0 24 24" id="clock">
    <path d="M12 17V12L9.5 10.5M21 12C21 16.9706 16.9706 21 12 21C7.02944 21 3 16.9706 3 12C3 7.02944 7.02944 3 12 3C16.9706 3 21 7.02944 21 12Z" stroke="#000000" stroke-width="2" stroke-linecap="round" stroke-linejoin="round"></path>
  </symbol>
  <symbol fill="#000000" version="1.1" id="bars" xmlns="http://www.w3.org/2000/svg" xmlns:xlink="http://www.w3.org/1999/xlink" enable-background="new 0 0 20 20" xml:space="preserve" viewBox="0 0 20 20">
    <path d="M5,19H1c-0.6,0-1-0.4-1-1v-7c0-0.6,0.4-1,1-1h4c0.6,0,1,0.4,1,1v7C6,18.6,5.6,19,5,19z M2,17h2v-5H2V17z"></path>
    <path d="M11,6H9C8.4,6,8,6.4,8,7v11c0,0.6,0.4,1,1,1h2c0.6,0,1-0.4,1-1V7C12,6.4,11.6,6,11,6z"></path>
    <path d="M19,19h-4c-0.6,0-1-0.4-1-1V2c0-0.6,0.4-1,1-1h4c0.6,0,1,0.4,1,1v16C20,18.6,19.6,19,19,19z M16,17h2V3h-2V17z"></path>
  </symbol>
  <symbol xmlns="http://www.w3.org/2000/svg" viewBox="0 0 1024 1024" id="setting">
    <path fill="#000000" d="M600.704 64a32 32 0 0 1 30.464 22.208l35.2 109.376c14.784 7.232 28.928 15.36 42.432 24.512l112.384-24.192a32 32 0 0 1 34.432 15.36L944.32 364.8a32 32 0 0 1-4.032 37.504l-77.12 85.12a357.12 357.12 0 0 1 0 49.024l77.12 85.248a32 32 0 0 1 4.032 37.504l-88.704 153.6a32 32 0 0 1-34.432 15.296L708.8 803.904c-13.44 9.088-27.648 17.28-42.368 24.512l-35.264 109.376A32 32 0 0 1 600.704 960H423.296a32 32 0 0 1-30.464-22.208L357.696 828.48a351.616 351.616 0 0 1-42.56-24.64l-112.32 24.256a32 32 0 0 1-34.432-15.36L79.68 659.2a32 32 0 0 1 4.032-37.504l77.12-85.248a357.12 357.12 0 0 1 0-48.896l-77.12-85.248A32 32 0 0 1 79.68 364.8l88.704-153.6a32 32 0 0 1 34.432-15.296l112.32 24.256c13.568-9.152 27.776-17.408 42.56-24.64l35.2-109.312A32 32 0 0 1 423.232 64H600.64zm-23.424 64H446.72l-36.352 113.088-24.512 11.968a294.113 294.113 0 0 0-34.816 20.096l-22.656 15.36-116.224-25.088-65.28 113.152 79.68 88.192-1.92 27.136a293.12 293.12 0 0 0 0 40.192l1.92 27.136-79.808 88.192 65.344 113.152 116.224-25.024 22.656 15.296a294.113 294.113 0 0 0 34.816 20.096l24.512 11.968L446.72 896h130.688l36.48-113.152 24.448-11.904a288.282 288.282 0 0 0 34.752-20.096l22.592-15.296 116.288 25.024 65.28-113.152-79.744-88.192 1.92-27.136a293.12 293.12 0 0 0 0-40.256l-1.92-27.136 79.808-88.128-65.344-113.152-116.288 24.96-22.592-15.232a287.616 287.616 0 0 0-34.752-20.096l-24.448-11.904L577.344 128zM512 320a192 192 0 1 1 0 384 192 192 0 0 1 0-384zm0 64a128 128 0 1 0 0 256 128 128 0 0 0 0-256z"></path>
  </symbol>
  <symbol version="1.1" xmlns="http://www.w3.org/2000/svg" viewBox="0 0 1024 1024" id="overview">
    <path d="M352.329143 79.286857c35.474286 0 64.146286 28.525714 64.146286 63.853714v190.902858a64 64 0 0 1-64.146286 63.853714H180.955429a63.926857 63.926857 0 0 1-64.073143-63.853714v-190.902858c0-35.254857 28.672-63.853714 64.073143-63.853714h171.373714z m0 510.244572c35.474286 0 64.146286 28.525714 64.146286 63.853714v190.902857a64 64 0 0 1-64.146286 63.853714H180.955429a63.926857 63.926857 0 0 1-64.073143-63.853714v-190.902857c0-35.328 28.672-63.853714 64.073143-63.853714h171.373714z m490.715428-510.244572c35.401143 0 64.073143 28.525714 64.073143 63.853714v190.902858a64 64 0 0 1-64.073143 63.853714H671.670857a63.926857 63.926857 0 0 1-64.146286-63.853714v-190.902858c0-35.254857 28.745143-63.853714 64.146286-63.853714h171.373714z m-669.988571 379.611429h187.172571c64.512 0 116.736-51.931429 116.736-116.077715v-208.457142A116.297143 116.297143 0 0 0 360.228571 18.285714H173.129143C108.617143 18.285714 56.32 70.217143 56.32 134.436571v208.384a116.297143 116.297143 0 0 0 116.736 116.077715z m0 510.244571h187.172571c64.512 0 116.736-51.931429 116.736-116.150857V644.608a116.297143 116.297143 0 0 0-116.736-116.077714H173.129143c-64.512 0-116.736 51.931429-116.736 116.077714v208.457143a116.297143 116.297143 0 0 0 116.736 116.077714z m490.788571-510.244571h187.026286c64.512 0 116.736-51.931429 116.736-116.077715v-208.457142A116.297143 116.297143 0 0 0 850.870857 18.285714H663.771429C599.259429 18.285714 547.108571 70.217143 547.108571 134.436571v208.384a116.297143 116.297143 0 0 0 116.736 116.077715z m178.980572 448.877714H663.698286c-38.619429 0-55.296-16.091429-55.296-54.784V644.608c0-38.546286 16.749714-55.369143 55.369143-55.369143h187.099428c38.765714 0 56.173714 16.749714 56.173714 55.296V853.138286c0 12.8 13.677714 27.501714 31.524572 27.501714s29.037714-14.701714 29.037714-27.501714V644.534857a116.297143 116.297143 0 0 0-116.736-116.004571H663.771429c-64.512 0-116.736 51.931429-116.736 116.077714v208.457143a116.297143 116.297143 0 0 0 116.662857 116.077714H850.285714c13.458286 0 30.72-10.971429 30.72-30.793143a30.72 30.72 0 0 0-30.134857-30.573714h-7.972571z" fill="#000000"></path>
  </symbol>
</svg>